<svg width="18" height="18" viewBox="0 0 18 18" fill="none" xmlns="http://www.w3.org/2000/svg">
<path fill-rule="evenodd" clip-rule="evenodd" d="M8.196 13.4742C7.29136 13.3067 6.45876 12.8689 5.80803 12.2185C5.1573 11.5681 4.71902 10.7358 4.551 9.83121C4.53823 9.78546 4.51336 9.74401 4.479 9.71121C4.45062 9.68289 4.41643 9.66108 4.37879 9.64726C4.34115 9.63345 4.30096 9.62797 4.261 9.63121L4.191 9.63921L2.623 9.84621C2.24051 9.93333 1.883 10.1068 1.57781 10.3532C1.27262 10.5997 1.02782 10.9127 0.862143 11.2683C0.696462 11.6238 0.614281 12.0126 0.621882 12.4048C0.629483 12.797 0.726666 13.1823 0.906001 13.5312L0.966 13.6352C1.444 14.4332 2.229 14.8922 3.103 14.9252C3.12591 15.549 3.37489 16.1432 3.80354 16.597C4.23219 17.0508 4.81124 17.3332 5.43273 17.3916C6.05422 17.4499 6.67573 17.2803 7.18139 16.9143C7.68704 16.5483 8.04233 16.0108 8.181 15.4022L8.387 13.8362L8.395 13.7662C8.39804 13.7263 8.39247 13.6861 8.37866 13.6485C8.36486 13.6109 8.34315 13.5767 8.315 13.5482C8.28374 13.5121 8.24224 13.4863 8.196 13.4742V13.4742ZM4.551 8.17421C4.71852 7.26957 5.15635 6.43697 5.80672 5.78624C6.45709 5.13551 7.28945 4.69723 8.194 4.52921C8.23975 4.51644 8.2812 4.49157 8.314 4.45721C8.374 4.39721 8.401 4.31721 8.395 4.23921L8.387 4.16921L8.179 2.60121C8.09188 2.21872 7.91846 1.86121 7.67199 1.55602C7.42552 1.25083 7.11253 1.00603 6.75695 0.840354C6.40136 0.674672 6.01261 0.592491 5.62039 0.600093C5.22818 0.607694 4.8429 0.704876 4.494 0.884211L4.39 0.944211C3.592 1.42221 3.133 2.20721 3.101 3.08121C2.47712 3.10391 1.8828 3.35274 1.42885 3.78131C0.974908 4.20988 0.692336 4.78893 0.63383 5.41047C0.575323 6.03201 0.744876 6.65362 1.11087 7.15937C1.47687 7.66512 2.01432 8.02049 2.623 8.15921L4.189 8.36421L4.259 8.37321C4.29895 8.37625 4.33908 8.37068 4.37668 8.35688C4.41429 8.34307 4.4485 8.32136 4.477 8.29321C4.51315 8.26195 4.53895 8.22045 4.551 8.17421V8.17421ZM13.496 8.17421C13.3285 7.26957 12.8907 6.43697 12.2403 5.78624C11.5899 5.13551 10.7575 4.69723 9.853 4.52921C9.80725 4.51644 9.7658 4.49157 9.733 4.45721C9.70463 4.42887 9.68277 4.39468 9.66896 4.35703C9.65514 4.31939 9.6497 4.27918 9.653 4.23921L9.661 4.16921L9.868 2.60121C9.95512 2.21872 10.1285 1.86121 10.375 1.55602C10.6215 1.25083 10.9345 1.00603 11.2901 0.840354C11.6456 0.674672 12.0344 0.592491 12.4266 0.600093C12.8188 0.607694 13.2041 0.704876 13.553 0.884211L13.657 0.944211C14.455 1.42221 14.915 2.20721 14.947 3.08121C15.5709 3.10391 16.1652 3.35274 16.6191 3.78131C17.0731 4.20988 17.3557 4.78893 17.4142 5.41047C17.4727 6.03201 17.3031 6.65362 16.9371 7.15937C16.5711 7.66512 16.0337 8.02049 15.425 8.15921L13.858 8.36421L13.788 8.37321C13.7481 8.37625 13.7079 8.37068 13.6703 8.35688C13.6327 8.34307 13.5985 8.32136 13.57 8.29321C13.5339 8.26195 13.508 8.22045 13.496 8.17421V8.17421ZM9.851 13.4742C10.7556 13.3067 11.5882 12.8689 12.239 12.2185C12.8897 11.5681 13.328 10.7358 13.496 9.83121C13.5088 9.78546 13.5336 9.74401 13.568 9.71121C13.628 9.65121 13.708 9.62421 13.786 9.63121L13.856 9.63921L15.425 9.84621C15.8075 9.93333 16.165 10.1068 16.4702 10.3532C16.7754 10.5997 17.0202 10.9127 17.1859 11.2683C17.3515 11.6238 17.4337 12.0126 17.4261 12.4048C17.4185 12.797 17.3213 13.1823 17.142 13.5312L17.082 13.6352C16.604 14.4332 15.818 14.8922 14.944 14.9252C14.9211 15.549 14.6721 16.1432 14.2435 16.597C13.8148 17.0508 13.2358 17.3332 12.6143 17.3916C11.9928 17.4499 11.3713 17.2803 10.8656 16.9143C10.36 16.5483 10.0047 16.0108 9.866 15.4022L9.661 13.8362L9.652 13.7662C9.64897 13.7263 9.65453 13.6861 9.66834 13.6485C9.68214 13.6109 9.70385 13.5767 9.732 13.5482C9.76353 13.5119 9.8054 13.4861 9.852 13.4742H9.851Z" fill="#00CA90"/>
</svg>
