<svg width="18" height="18" fill="none" xmlns="http://www.w3.org/2000/svg"><path fill-rule="evenodd" clip-rule="evenodd" d="M8.196 13.474a4.55 4.55 0 01-3.645-3.643.277.277 0 00-.29-.2l-.07.008-1.568.207a2.574 2.574 0 00-1.717 3.685l.06.104c.478.798 1.263 1.257 2.137 1.29a2.572 2.572 0 005.078.477l.206-1.566.008-.07a.28.28 0 00-.08-.218.237.237 0 00-.119-.074zm-3.645-5.3A4.55 4.55 0 018.194 4.53a.264.264 0 00.12-.072c.06-.06.087-.14.081-.218l-.008-.07-.208-1.568A2.573 2.573 0 004.494.884l-.104.06c-.798.478-1.257 1.263-1.289 2.137a2.572 2.572 0 00-.478 5.078l1.566.205.07.01a.28.28 0 00.218-.08.236.236 0 00.074-.12zm8.945 0A4.55 4.55 0 009.853 4.53a.264.264 0 01-.12-.072.276.276 0 01-.08-.218l.008-.07.207-1.568A2.573 2.573 0 0113.553.884l.104.06c.798.478 1.258 1.263 1.29 2.137a2.572 2.572 0 01.478 5.078l-1.567.205-.07.01a.28.28 0 01-.218-.08.236.236 0 01-.074-.12zm-3.645 5.3a4.55 4.55 0 003.645-3.643.264.264 0 01.072-.12c.06-.06.14-.087.218-.08l.07.008 1.569.207a2.574 2.574 0 011.717 3.685l-.06.104c-.478.798-1.264 1.257-2.138 1.29a2.572 2.572 0 01-5.078.477l-.205-1.566-.009-.07a.28.28 0 01.08-.218.236.236 0 01.12-.074h-.001z" fill="#00CA90"/></svg>