<svg width="46" height="13" fill="none" xmlns="http://www.w3.org/2000/svg"><path d="M5.262.049l2.691 1.828C6.38 4.027 5.566 6.346 5.516 8.834v3.453H.844V9.342c0-1.727.406-3.436 1.219-5.13C2.891 2.52 3.958 1.133 5.261.05zm7.998 0l2.691 1.828c-1.574 2.15-2.386 4.469-2.437 6.957v3.453H8.842V9.342c0-1.727.406-3.436 1.218-5.13.83-1.692 1.896-3.08 3.2-4.163zm20.414 12.924l-2.666-1.829c1.574-2.2 2.387-4.519 2.437-6.957V.531h4.647v3.301c-.017 1.693-.44 3.385-1.27 5.078-.812 1.676-1.862 3.03-3.148 4.063zm7.795 0l-2.666-1.829c1.574-2.2 2.387-4.519 2.437-6.957V.531h4.647v3.301c-.017 1.693-.44 3.385-1.27 5.078-.812 1.676-1.862 3.03-3.148 4.063z" fill="#00CA90"/></svg>